<svg xmlns="http://www.w3.org/2000/svg" xmlns:xlink="http://www.w3.org/1999/xlink" viewBox="0 0 1500 388.14"><defs><style>.cls-1{fill:none;}.cls-2{isolation:isolate;}.cls-3{opacity:0.2;}.cls-4{opacity:0.5;}.cls-5{clip-path:url(#clip-path);}.cls-6,.cls-7,.cls-9{fill:#35b3be;}.cls-6{mix-blend-mode:color;}.cls-7{opacity:0.8;}.cls-8{clip-path:url(#clip-path-2);}.cls-10{fill:#8bc53f;}.cls-11{fill:#d6de23;}.cls-12{fill:#fde567;}.cls-13{fill:#f05a28;}.cls-14{fill:#faaf40;}.cls-15{fill:#fff;}</style><clipPath id="clip-path"><rect class="cls-1" width="1249.69" height="388.14"/></clipPath><clipPath id="clip-path-2"><rect class="cls-1" x="1248.94" width="251.06" height="388.14"/></clipPath></defs><title>Website Banner</title><g class="cls-2"><g id="Layer_1" data-name="Layer 1"><g class="cls-3"><g class="cls-4"><g class="cls-5"><image width="600" height="590" transform="translate(-14.23 -154.58) scale(2.1)" xlink:href="../../../../../Downloads/Calculator.kodabar.jpg"/></g></g><rect class="cls-6" width="1249.69" height="388.14"/><rect class="cls-7" width="1249.69" height="388.14"/></g><g class="cls-8"><path class="cls-9" d="M1247.75,188l-.23,361.72C1047.75,549.64,885.91,387.59,886,187.82S1048.2-173.8,1248-173.67h0Z"/><path class="cls-10" d="M1247.75,188,1578.1,335.38C1518.46,469.11,1394,549.86,1247.52,549.76Z"/><path class="cls-11" d="M1247.75,188,1578.29,41.13c43.25,97.3,43.19,197-.18,294.25Z"/><path class="cls-12" d="M1247.75,188l197.2-303.24c61.3,39.86,103.65,89.51,133.34,156.32Z"/><path class="cls-13" d="M1247.75,188l75.43-353.77c45.52,9.71,82.75,25.15,121.77,50.53Z"/><path class="cls-14" d="M1247.75,188l.23-361.72a344.2,344.2,0,0,1,75.2,8Z"/></g><path class="cls-15" d="M1340.26,166.65c-10.13-52.26-59.75-86.75-110.63-76.89s-84,60.4-73.9,112.65a98.07,98.07,0,0,0,18.19,40.79c-16.73,12.27-69.6,69.93-70.27,86-.24,5.9,8.51,13,15.56,9.68s59.33-55.92,72.83-77.42a92.68,92.68,0,0,0,74.32,17.88C1317.24,269.44,1350.39,218.91,1340.26,166.65Zm-79.26,85c-36,7-71.16-17.44-78.34-54.45S1199,124.4,1235,117.42s71.17,17.44,78.34,54.45S1297,244.66,1261,251.64Z"/></g></g></svg>